<svg width="1600" height="900" viewBox="0 0 1600 900" fill="none" xmlns="http://www.w3.org/2000/svg">
  <defs>
    <linearGradient id="bg" x1="120" y1="60" x2="1500" y2="860" gradientUnits="userSpaceOnUse">
      <stop stop-color="#09111F"/>
      <stop offset="0.5" stop-color="#0F1C33"/>
      <stop offset="1" stop-color="#16284A"/>
    </linearGradient>
    <linearGradient id="accent" x1="260" y1="180" x2="1340" y2="760" gradientUnits="userSpaceOnUse">
      <stop stop-color="#69F5D1"/>
      <stop offset="0.5" stop-color="#7AA7FF"/>
      <stop offset="1" stop-color="#C28CFF"/>
    </linearGradient>
    <linearGradient id="panel" x1="0" y1="0" x2="0" y2="1">
      <stop stop-color="#172745" stop-opacity="0.92"/>
      <stop offset="1" stop-color="#0F1830" stop-opacity="0.94"/>
    </linearGradient>
    <filter id="blur" x="0" y="0" width="1600" height="900" filterUnits="userSpaceOnUse">
      <feGaussianBlur stdDeviation="48"/>
    </filter>
  </defs>

  <rect width="1600" height="900" fill="url(#bg)"/>
  <circle cx="300" cy="180" r="160" fill="#2AD8B0" fill-opacity="0.18" filter="url(#blur)"/>
  <circle cx="1320" cy="720" r="220" fill="#8B6CFF" fill-opacity="0.16" filter="url(#blur)"/>
  <circle cx="1160" cy="180" r="120" fill="#69A7FF" fill-opacity="0.14" filter="url(#blur)"/>

  <path d="M174 676C296 580 456 538 640 540C860 542 1010 476 1140 378C1237 304 1332 268 1460 274" stroke="url(#accent)" stroke-width="4" stroke-linecap="round" stroke-dasharray="1 16"/>
  <path d="M190 708C332 615 486 580 642 580C874 580 1048 510 1172 420C1260 356 1350 324 1470 330" stroke="#FFFFFF" stroke-opacity="0.08" stroke-width="2" stroke-linecap="round" stroke-dasharray="1 14"/>

  <rect x="112" y="126" width="1376" height="648" rx="36" fill="#0D172B" fill-opacity="0.48" stroke="#FFFFFF" stroke-opacity="0.08"/>

  <rect x="150" y="170" width="440" height="470" rx="28" fill="url(#panel)" stroke="#FFFFFF" stroke-opacity="0.08"/>
  <rect x="150" y="170" width="440" height="58" rx="28" fill="#FFFFFF" fill-opacity="0.03"/>
  <circle cx="188" cy="199" r="8" fill="#FF6B6B"/>
  <circle cx="214" cy="199" r="8" fill="#FFD166"/>
  <circle cx="240" cy="199" r="8" fill="#69F5D1"/>

  <text x="188" y="284" fill="#F6FAFF" font-family="Inter, ui-sans-serif, system-ui, -apple-system, BlinkMacSystemFont, sans-serif" font-size="34" font-weight="700">gerrit-cli</text>
  <text x="188" y="328" fill="#C7D3EA" font-family="Inter, ui-sans-serif, system-ui, -apple-system, BlinkMacSystemFont, sans-serif" font-size="18">Gerrit workflow in your terminal</text>
  <text x="188" y="380" fill="#8FA4CC" font-family="JetBrains Mono, SFMono-Regular, Consolas, monospace" font-size="16">$ gerrit-cli incoming</text>
  <text x="188" y="416" fill="#8FA4CC" font-family="JetBrains Mono, SFMono-Regular, Consolas, monospace" font-size="16">$ gerrit-cli diff 12345</text>
  <text x="188" y="452" fill="#8FA4CC" font-family="JetBrains Mono, SFMono-Regular, Consolas, monospace" font-size="16">$ gerrit-cli comment 12345 -m "LGTM"</text>

  <rect x="640" y="170" width="820" height="470" rx="28" fill="url(#panel)" stroke="#FFFFFF" stroke-opacity="0.08"/>
  <text x="688" y="246" fill="#F6FAFF" font-family="Inter, ui-sans-serif, system-ui, -apple-system, BlinkMacSystemFont, sans-serif" font-size="54" font-weight="800">Gerrit CLI</text>
  <text x="688" y="296" fill="#C7D3EA" font-family="Inter, ui-sans-serif, system-ui, -apple-system, BlinkMacSystemFont, sans-serif" font-size="21">A productized terminal front-end for code review, CI checks, and AI workflows.</text>

  <rect x="688" y="348" width="240" height="48" rx="16" fill="#69F5D1" fill-opacity="0.16" stroke="#69F5D1" stroke-opacity="0.35"/>
  <text x="712" y="379" fill="#DFFCF5" font-family="Inter, ui-sans-serif, system-ui, -apple-system, BlinkMacSystemFont, sans-serif" font-size="18" font-weight="700">Review faster</text>

  <rect x="944" y="348" width="238" height="48" rx="16" fill="#7AA7FF" fill-opacity="0.16" stroke="#7AA7FF" stroke-opacity="0.35"/>
  <text x="969" y="379" fill="#E8F0FF" font-family="Inter, ui-sans-serif, system-ui, -apple-system, BlinkMacSystemFont, sans-serif" font-size="18" font-weight="700">AI-friendly output</text>

  <rect x="1200" y="348" width="192" height="48" rx="16" fill="#C28CFF" fill-opacity="0.16" stroke="#C28CFF" stroke-opacity="0.35"/>
  <text x="1230" y="379" fill="#F4EBFF" font-family="Inter, ui-sans-serif, system-ui, -apple-system, BlinkMacSystemFont, sans-serif" font-size="18" font-weight="700">GitHub Release</text>

  <rect x="688" y="430" width="700" height="6" rx="3" fill="#FFFFFF" fill-opacity="0.08"/>
  <rect x="688" y="430" width="392" height="6" rx="3" fill="url(#accent)"/>

  <text x="688" y="494" fill="#8FA4CC" font-family="Inter, ui-sans-serif, system-ui, -apple-system, BlinkMacSystemFont, sans-serif" font-size="18">• install • setup • incoming • diff • comment • vote • build-status • checkout</text>

  <g transform="translate(688 540)">
    <rect width="136" height="74" rx="20" fill="#101C35" stroke="#FFFFFF" stroke-opacity="0.08"/>
    <text x="18" y="31" fill="#69F5D1" font-family="JetBrains Mono, SFMono-Regular, Consolas, monospace" font-size="15">0.0.1</text>
    <text x="18" y="52" fill="#C7D3EA" font-family="Inter, ui-sans-serif, system-ui, -apple-system, BlinkMacSystemFont, sans-serif" font-size="15">first release</text>
  </g>

  <g transform="translate(846 540)">
    <rect width="198" height="74" rx="20" fill="#101C35" stroke="#FFFFFF" stroke-opacity="0.08"/>
    <text x="18" y="31" fill="#7AA7FF" font-family="JetBrains Mono, SFMono-Regular, Consolas, monospace" font-size="15">/plugin install</text>
    <text x="18" y="52" fill="#C7D3EA" font-family="Inter, ui-sans-serif, system-ui, -apple-system, BlinkMacSystemFont, sans-serif" font-size="15">skill-ready workflow</text>
  </g>

  <g transform="translate(1076 540)">
    <rect width="160" height="74" rx="20" fill="#101C35" stroke="#FFFFFF" stroke-opacity="0.08"/>
    <text x="18" y="31" fill="#C28CFF" font-family="JetBrains Mono, SFMono-Regular, Consolas, monospace" font-size="15">LLM JSON</text>
    <text x="18" y="52" fill="#C7D3EA" font-family="Inter, ui-sans-serif, system-ui, -apple-system, BlinkMacSystemFont, sans-serif" font-size="15">scriptable output</text>
  </g>

  <g transform="translate(1260 540)">
    <rect width="138" height="74" rx="20" fill="#101C35" stroke="#FFFFFF" stroke-opacity="0.08"/>
    <text x="18" y="31" fill="#69F5D1" font-family="JetBrains Mono, SFMono-Regular, Consolas, monospace" font-size="15">CI watch</text>
    <text x="18" y="52" fill="#C7D3EA" font-family="Inter, ui-sans-serif, system-ui, -apple-system, BlinkMacSystemFont, sans-serif" font-size="15">exit status</text>
  </g>
</svg>
